<svg xmlns="http://www.w3.org/2000/svg" viewBox="0 0 170.75 206.49"><defs><style>.cls-1{fill:#58595b;}.cls-2{fill:#808184;}.cls-3{fill:#6d6e70;}.cls-4{fill:#4a4a4c;}.cls-5{fill:#404041;}.cls-6{fill:#bbbdbf;}.cls-7{fill:#626366;}.cls-8{fill:#dbdcdd;}.cls-9{fill:#fff;}.cls-10{fill:#a6a8ab;}.cls-11{fill:#9c9ea1;}.cls-12{fill:#e90000;}.cls-13{fill:#cdcecf;}</style></defs><g id="Layer_2" data-name="Layer 2"><g id="Layer_1-2" data-name="Layer 1"><ellipse class="cls-1" cx="90.44" cy="139.22" rx="41.23" ry="5.44"/><path class="cls-2" d="M57,137.93,59.63,185l25.48,4.15,2.5-54.81C73.86,135.26,62.24,137,57,137.93Z"/><path class="cls-3" d="M85.65,134.49l4.15,50.34,30.5,9.26-1.47-59.66A214.66,214.66,0,0,0,85.65,134.49Z"/><path class="cls-4" d="M86.88,188.62S74.12,180,62.63,182.69c0,0-16.14,1.28-24.07,13.77,0,0-3.65,3.83-.27,6.2a8.75,8.75,0,0,0,5.92,2.83s16.87,1.28,30.91-2.46Z"/><path class="cls-5" d="M77.67,205.4s-4.55-2.55-3.1-5.84c0,0,7.21-12.31,16.69-15.86,0,0,9.85-4.93,23.52,4.65,0,0,10,7.47,10.67,11.85,0,0,.82,3.19-7.66,4.47C117.79,204.67,87.16,208.22,77.67,205.4Z"/><path class="cls-6" d="M56.8,37.52S54.12,23.87,68.06,6.27c0,0,7.18-10.13,44.47-4.64,0,0,10.56.56,14.36,28,0,0,.42,4.22-3.8,4.64Z"/><path class="cls-7" d="M113.43,1.83C101.12,10,101,31.82,101,31.82l3.13,4,19-.94c4.22-.43,3.8-4.72,3.8-4.72C123.76,7.13,116.06,2.68,113.43,1.83Z"/><path class="cls-3" d="M69.7,16.05c-.86,2.95-3.56,4.75-6.05,4s-3.79-3.7-2.93-6.65,3.56-4.75,6-4S70.56,13.1,69.7,16.05Z"/><path class="cls-8" d="M67.28,15.37A2.53,2.53,0,1,1,62.45,14a2.53,2.53,0,1,1,4.83,1.41Z"/><path class="cls-3" d="M94,14.09c-.94,3.2-3.88,5.16-6.58,4.38s-4.12-4-3.19-7.23,3.87-5.16,6.57-4.37S94.94,10.89,94,14.09Z"/><path class="cls-8" d="M91.37,13.35a2.75,2.75,0,1,1-5.25-1.53,2.75,2.75,0,1,1,5.25,1.53Z"/><path class="cls-9" d="M65.3,26.35a112.31,112.31,0,0,1,22-2.54s-1.33,3.3-2.86,4.34l-17.62,2A4.48,4.48,0,0,1,65.3,26.35Z"/><path class="cls-10" d="M46.83,45.49s1-6,3-6.47c0,0,3.72-4.6,36.11-6.81,0,0,30.72,0,47.27,4.34a1.93,1.93,0,0,1,1.06,1.06s6.46,10.44,8.85,34.16c0,0,4.6,46.74-11.15,67.45,0,0-.89,2.21-3.45.8,0,0-27.71-6.46-45.68-4.78,0,0-27.7,2.12-33.19,5,0,0-3.1-.45-4.07-2.66,0,0-4-10.53-5.13-17.44,0,0-5.05-2.92-1.86-8.67,0,0-3.81-21.16.71-37.44,0,0-3.37-6.64,2.12-8.41Z"/><path class="cls-6" d="M46.17,76s-.93,26.42,2.39,35.45a155.63,155.63,0,0,1,47.93-2.92s-1.86-20.44-1.07-36.91C95.42,71.64,67.41,67.66,46.17,76Z"/><rect class="cls-11" x="83.34" y="77.09" width="4.91" height="22.84" rx="1.15"/><path class="cls-12" d="M90.64,104.52s.18,10.36,4.25,15.41c0,0,1.86,7.61,2,12.3,0,0,6.73,7.61,18.5-.18,0,0-1.51-10.8-.44-15.49a45.61,45.61,0,0,0,.26-14.43S104.19,111.43,90.64,104.52Z"/><path class="cls-9" d="M115.24,102.37c.17,2.51-5.23,4.9-12,5.35S90.7,106.49,90.54,104s5.23-4.9,12-5.35S115.08,99.86,115.24,102.37Z"/><path class="cls-13" d="M120.25,112.27a18.82,18.82,0,0,0-4.67-3.61,38.25,38.25,0,0,1-.77,8.26,7.28,7.28,0,0,1-.85,1.42,1.3,1.3,0,0,1-.08.17s-3.85,9.43-17.13,4.65c0,0-2.92-1.46-3.32-2.53,0,0-2.79,1.73-2.79,2.92,0,0,5,8.9,15.14,8.24,0,0,12.48.26,14.87-9.83S120.25,112.27,120.25,112.27ZM93.6,117.9a25.73,25.73,0,0,1-2-6c-.83.64-1.67,1.33-2.53,2.1l3,4.78S92.67,118.42,93.6,117.9Z"/><path class="cls-7" d="M25.82,87.85c-1.77,3.1-4.73,4.74-6.61,3.66S17.26,87.06,19,84s4.74-4.74,6.61-3.67S27.6,84.75,25.82,87.85Z"/><path class="cls-6" d="M14,161.46a16.57,16.57,0,0,1-4.07-14s.85-3.89,6.73-3.13c0,0,6.17,1.32,4.46,8.15,0,0-1,4.37-1.71,4.94a22.83,22.83,0,0,0,5.12-.1s5.22-2.75,3.42-13.94c0,0-1.33-5.79-4.74-7.59l1.23-3.8-13.85-3-.57.66S-.28,136.9,0,146.86c0,0,1.23,12.42,7.3,17C7.31,163.84,13.1,163.27,14,161.46Z"/><path class="cls-2" d="M119.26,103.6s18.66,0,22.71-16.93c0,0,3-9.53-8.68-21.77,0,0-7.67-6.69-8.1-6.69a13.41,13.41,0,0,1-4.34-10.1s-1-8.39,10-7.4c0,0,10,.14,22,12.38,0,0,10.13,12.09,14.32,26.47,0,0,3,19.77-13,33.43,0,0-17.65,17.93-32,20.21A80.53,80.53,0,0,1,119.26,103.6Z"/><path class="cls-7" d="M170.71,86.73c-.31,3.74-2.4,6.62-4.66,6.44s-3.84-3.37-3.53-7.12,2.39-6.62,4.65-6.43S171,83,170.71,86.73Z"/><path class="cls-2" d="M39.31,74s-3.37-6.64,2.12-8.41l4.16-15.47C20.5,73.73,4.51,125.37,4.51,125.37c4.41,7.68,22.63,11.38,22.63,11.38A204.48,204.48,0,0,1,37.7,104.62C37,97.05,36.39,84.5,39.31,74Z"/></g></g></svg>