<svg xmlns="http://www.w3.org/2000/svg" viewBox="0 0 173.37 210.25"><defs><style>.cls-1{fill:#bbbdbf;}.cls-2{fill:#626366;}.cls-3{fill:#6d6e70;}.cls-4{fill:#dbdcdd;}.cls-5{fill:#48484a;}.cls-6{fill:#353535;}.cls-7{fill:#404041;}.cls-8{fill:#fff;}.cls-9{fill:#f89919;}.cls-10{fill:#e58319;}.cls-11{fill:#df670e;}.cls-12{fill:#525252;}.cls-13{fill:#454545;}.cls-14{fill:#272727;}.cls-15{fill:#808184;}</style></defs><g id="Layer_2" data-name="Layer 2"><g id="Layer_1-2" data-name="Layer 1"><path class="cls-1" d="M57.17,38.51s-2.74-14,11.56-32.07c0,0,7.37-10.4,45.65-4.77,0,0,10.84.58,14.74,28.75,0,0,.43,4.34-3.9,4.77Z"/><path class="cls-2" d="M115.3,1.88c-12.64,8.33-12.76,30.79-12.76,30.79l3.21,4,19.47-1c4.33-.44,3.9-4.84,3.9-4.84C125.91,7.32,118,2.76,115.3,1.88Z"/><path class="cls-3" d="M70.42,16.48c-.89,3-3.67,4.87-6.21,4.13s-3.9-3.79-3-6.82,3.66-4.88,6.21-4.14S71.3,13.45,70.42,16.48Z"/><path class="cls-4" d="M67.93,15.78a2.6,2.6,0,1,1-5-1.45,2.6,2.6,0,1,1,5,1.45Z"/><path class="cls-3" d="M91.32,15.53c-1.39,3.3-4.77,5-7.54,3.86s-3.9-4.79-2.52-8.09,4.77-5,7.54-3.85S92.71,12.24,91.32,15.53Z"/><path class="cls-4" d="M88.61,14.42a3.13,3.13,0,0,1-4,1.89,3.13,3.13,0,0,1-1.43-4.16,3.13,3.13,0,0,1,4-1.89A3.13,3.13,0,0,1,88.61,14.42Z"/><path class="cls-5" d="M89.9,17.83l0-.07,0-.08h0a.7.7,0,0,0-1-.22c-.54.44-.09,1.12-.08,1.14h0c.93,1.95,5.58,11.09,12.88,14.52l.82-.64S93.27,26.81,89.9,17.83Z"/><path class="cls-6" d="M43.35,141.09,49.51,40.73s27.55-14.83,89.19-5l10.6,104.79S96.9,133.39,43.35,141.09Z"/><path class="cls-7" d="M149.1,139.94s-9.24,8.47-55.09,6.74c0,0-34.09,3.66-50.66-5.59,0,0,70.12-16.18,105.75-1.92"/><path class="cls-8" d="M116.36,37c-21.65-4.07-59.56,4.47-67,6.24L47.79,68.73l.18.41L69,106l42-42.47C117.51,54.6,116.36,37,116.36,37Z"/><path d="M113.56,38.72C104,68.61,69,105.74,69,105.74c20.42-12,48-39.58,48-39.58,0-1.74-4.24-5-4.24-5l8.09-1.35c1.12-4.64.81-15.11.56-20.44A63,63,0,0,0,113.56,38.72Z"/><path class="cls-9" d="M139.34,42.06l-.64-6.34c-61.64-9.82-89.19,5-89.19,5l-.38,6.21C51,46,79.86,31.68,139.34,42.06Z"/><path class="cls-10" d="M67,39.62a19.69,19.69,0,0,1-6.88-1s-6.6-2.26-7.81.1c0,0-1.3,1.87.1,3,0,0,2.17,1.54,1.69,2.7,0,0,.09,3.32-.87,3.7a2.13,2.13,0,0,0-.19,2.65s.91,1.35,3.51,0c0,0,9.06-4.48,11.42-6.89C68,44,70.56,40.2,67,39.62Z"/><path class="cls-10" d="M72.68,38s2.69.44,7.27-2.65c0,0,4-2.84,6.21-3.27,0,0,1.59,0,1.59.82a6.83,6.83,0,0,1-1.59,4.38s-1.44,1.49,0,2.5c0,0,3,2.36,3,4.58v.1s.73,2.16-2.55,2.16a67.92,67.92,0,0,1-8-1.44s-4.09-1.4-6.45-.77C72.2,44.44,68.87,38.8,72.68,38Z"/><path class="cls-11" d="M66.46,40.68a3.89,3.89,0,1,1,7.71,0,3.89,3.89,0,1,1-7.71,0Z"/><path d="M71.28,61.05a1.74,1.74,0,1,1-1.73-1.83A1.79,1.79,0,0,1,71.28,61.05Z"/><path d="M70.61,75.6a1.74,1.74,0,1,1-1.74-1.83A1.79,1.79,0,0,1,70.61,75.6Z"/><path d="M71,93.32a1.74,1.74,0,1,1-1.73-1.83A1.78,1.78,0,0,1,71,93.32Z"/><path d="M47.16,79.07A189.85,189.85,0,0,0,69,106S51,73.54,48.46,57.83Z"/><path class="cls-12" d="M60.5,137.83l2.79,49.74L90.21,192l2.65-57.9C78.33,135,66.06,136.88,60.5,137.83Z"/><path class="cls-13" d="M90.79,134.19l4.38,53.17,32.22,9.79-1.55-63A226.27,226.27,0,0,0,90.79,134.19Z"/><path d="M92.09,191.37s-13.49-9.15-25.63-6.26c0,0-17,1.35-25.42,14.54,0,0-3.86,4-.29,6.55a9.25,9.25,0,0,0,6.26,3s17.82,1.35,32.65-2.6Z"/><path class="cls-14" d="M82.36,209.09s-4.82-2.69-3.28-6.16c0,0,7.61-13,17.63-16.76,0,0,10.4-5.2,24.85,4.91,0,0,10.59,7.9,11.27,12.52,0,0,.86,3.37-8.09,4.72C124.74,208.32,92.37,212.08,82.36,209.09Z"/><path class="cls-15" d="M26.22,91.29c-1.8,3.15-4.81,4.81-6.71,3.72s-2-4.52-.18-7.67,4.81-4.81,6.71-3.72S28,88.14,26.22,91.29Z"/><path class="cls-4" d="M14.26,166a16.86,16.86,0,0,1-4.14-14.26S11,147.83,17,148.6c0,0,6.26,1.35,4.52,8.29,0,0-1.05,4.43-1.73,5a23.55,23.55,0,0,0,5.2-.1s5.3-2.79,3.47-14.16c0,0-1.35-5.87-4.82-7.7l1.26-3.86L10.79,133l-.57.68S-.28,141.09,0,151.21c0,0,1.25,12.61,7.41,17.24C7.42,168.45,13.3,167.87,14.26,166Z"/><path class="cls-4" d="M97.58,121.93l3.94.86s.77-6.64,8.38-6.16c0,0,4.24,0,5.4,6.35,0,0,.48,6.36-7.42,7.32a8.65,8.65,0,0,1-5.68-1.63s-2.41,1.35-2.51,3.27c0,0,7.13,9.73,15,7.61,0,0,6.55-2.5,9-5.1l1.44-.58-.86-22.35-2.51-.67s-5.68-5.68-12.81-3A16.34,16.34,0,0,0,97.58,121.93Z"/><path class="cls-13" d="M121.9,107.28s18.63,0,22.68-17.19c0,0,3-9.68-8.67-22.1,0,0-7.66-6.79-8.09-6.79a13.75,13.75,0,0,1-4.34-10.26s-1-8.52,10-7.51c0,0,10,.14,22,12.57,0,0,10.12,12.28,14.31,26.87,0,0,3,20.08-13,33.95,0,0-17.62,18.2-31.93,20.52A83.39,83.39,0,0,1,121.9,107.28Z"/><path class="cls-13" d="M49,50.59c-27,22.69-44.37,78.8-44.37,78.8,4.48,7.8,23,11.56,23,11.56,6.5-26.66,15.32-42.89,18.77-48.57Z"/><path class="cls-15" d="M173.33,90.16c-.31,3.79-2.43,6.72-4.72,6.53s-3.91-3.42-3.59-7.22,2.43-6.73,4.73-6.54S173.65,86.36,173.33,90.16Z"/><path class="cls-8" d="M76,123.08s-3.47-.77-3.27-9.25c0,0,.09-21,.86-25.62,0,0,1.74-8.57,6.65-15A7.2,7.2,0,0,0,81.49,69V56s2.5-3.22,7.13-.24l.09,12.81s.77,5.93,2.7,8c0,0,3.18,3.66,3.76,11.75l.58,28.8s-.2,5.58-4,6.64Z"/><rect class="cls-1" x="36.94" y="122.45" width="68.77" height="6.36" rx="1.25"/><path class="cls-1" d="M84.23,122.6s-4.29-1.35-4.29-5.2c0,0-.47-25.72-.38-28.8,0,0,.75-7.42,4.2-10.69,0,0,5.92-6.84,9.29,7.61,0,0,.09.53.93,12.47,0,0,2,27.21-2.38,24.61Z"/></g></g></svg>