<svg xmlns="http://www.w3.org/2000/svg" viewBox="0 0 207.26 161.46"><defs><style>.cls-1,.cls-18{fill:#e6e7e8;}.cls-1{opacity:0.5;}.cls-2{fill:#808184;}.cls-3{fill:#b3b3b3;}.cls-4{fill:#fff;}.cls-5{fill:#bbbdbf;}.cls-6{fill:#679436;}.cls-7{fill:#404041;}.cls-8{fill:#9c9ea1;}.cls-9{fill:#12b2ef;}.cls-10{fill:#f89919;}.cls-11{fill:#626366;}.cls-12{fill:#42210b;}.cls-13{fill:#009245;}.cls-14{fill:#006837;}.cls-15{fill:#c90;}.cls-16{fill:#960;}.cls-17{fill:#ffc;}</style></defs><g id="Layer_2" data-name="Layer 2"><g id="Layer_1-2" data-name="Layer 1"><path class="cls-1" d="M207,122.14c0-53.88-46.34-97.55-103.51-97.55S0,68.26,0,122.14"/><line class="cls-1" x1="5.13" y1="126.96" x2="204.55" y2="126.96"/><path class="cls-2" d="M166.94,141.54c0,11-27.59,19.92-61.61,19.92s-61.62-8.92-61.62-19.92,27.59-19.93,61.62-19.93S166.94,130.53,166.94,141.54Z"/><path class="cls-3" d="M139.83,116.06s-4.8-2.34.78-7.78c0,0,14-16.87,24.12-24.26,0,0,19.33-17,26.72-9.73l1.69-3.37-2.2-2.46S177.7,62,155.26,81.69c0,0-27.11,22.18-31.26,24.64,0,0-15.3,10.77-20.49,9.47l30.22,4.8Z"/><path class="cls-4" d="M.39,124.27c0,15.38,46.28,27.85,103.38,27.85s103.38-12.47,103.38-27.85"/><path class="cls-5" d="M207.11,123.57a42.21,42.21,0,0,1-21.2,8.48s-14.2,1.85-17-.88l4.52-8.11H.49"/><path class="cls-6" d="M.5,124c0,5.42,46.28,9.82,103.38,9.82,21.19,0,40.88-.61,57.28-1.65l1.61,5.24,39.82-6.93"/><path class="cls-6" d="M207.26,124c0-5.42-46.29-9.81-103.38-9.81S.5,118.6.5,124"/><path class="cls-4" d="M201.57,133.57s-21.53,15.31-56,14.53l-43.85-14.3s33.73.42,56.56-17.61c0,0,22.57-16.47,28.53-30,0,0,7.53-10.77,3.51-17.77a8.84,8.84,0,0,1,6.61,6.22"/><path class="cls-4" d="M196.9,74.68S199,79,196,84.67c0,0-12.06,20.62-22.83,31.26,0,0-8.43,9.21-8.82,12.06l2.08,1.82,2.08.65s.25,1.94,4.41,1.94c0,0,9.08.26,14.39-.65,0,0,15.75-2.46,19.75-8.69"/><circle class="cls-7" cx="166.21" cy="128.98" r="4.82"/><circle class="cls-8" cx="166.16" cy="128.74" r="1.17"/><path class="cls-7" d="M138.47,114.83l3.36.1a2.82,2.82,0,0,0,.26-1.17,2.87,2.87,0,0,0-2.87-2.87,3.1,3.1,0,0,0-.76.1A3.58,3.58,0,0,0,138.47,114.83Z"/><path class="cls-9" d="M28.78,107.53a17,17,0,0,0-8.17-2c-7,0-12.72,3.8-13.22,8.63.17.28,1.4,1.78,8.23,1.24,0,0,3.19.5,9.33-4.34a35.29,35.29,0,0,0,3.83-3.55"/><path class="cls-7" d="M28.71,107.43s-1.62,1.39-3.83,3.37c0,0-6.84,5-11.35,4.67,0,0-4.41.06-6.16-1.3a2,2,0,0,0-.71,2.21s2.53,3.11,14.07,1.75l11-1.43"/><path class="cls-10" d="M31.14,117.35l-9.87.15s.48,2.69,5.39,2.7c0,0,3.46,0,4.48-2.85"/><path class="cls-11" d="M31.63,117.12a11.38,11.38,0,0,1-6,1.9s-3.16.15-4.71-1.7c0,0,0-2.29,3.64-3.55a5.8,5.8,0,0,1,4.87.24"/><path class="cls-4" d="M28.45,107.36c-3.05-.39-7.56,3.38-7.56,3.38a8.84,8.84,0,0,1-5.8,2.3c-4.41.24-6.58.73-7.63,1.2,1.81,1.29,6.07,1.23,6.07,1.23,4.51.32,11.35-4.67,11.35-4.67,1.88-1.68,3.33-2.94,3.72-3.28"/><rect class="cls-7" x="114.34" y="104.39" width="0.29" height="4.25"/><path class="cls-11" d="M114.34,108.34s-2-.06-2.27,2.53a2.57,2.57,0,0,0,2.17,3s1.79.09,2.27-2.47C116.51,111.42,117.23,108.37,114.34,108.34Z"/><path class="cls-7" d="M115.89,111.18c0,.92-.32,1.67-.71,1.67s-.71-.75-.71-1.67.32-1.67.71-1.67S115.89,110.26,115.89,111.18Z"/><path class="cls-12" d="M132.63,111l-.45,8.43s0,.46,1.1.59c0,0,.58.32,1-.52l.39-8.76Z"/><path class="cls-12" d="M141.26,109.64l-.26,6.68a2.93,2.93,0,0,0,1.42.71s.91.07,1-1l-.06-6.48Z"/><path class="cls-12" d="M122.25,106.85l-.71,9.21s-.13.32-1.1.45c0,0-1-.26-1-1.1l.52-9.66Z"/><path class="cls-13" d="M125.35,105.88s-2.48,1.75-4.57,1.36c0,0-2.43-1.17-2.73-1.95,0,0-.43-.43-1.65-.29a4.69,4.69,0,0,1-2.77-.44,4.2,4.2,0,0,1-2.29-1.07s-2.58-.82-.83-3.5l1.07-1.36a2.5,2.5,0,0,1,.73-2.87,11.45,11.45,0,0,1,2.92-1.85s1.32-2.33,1.9-2.43a7.11,7.11,0,0,1,2.29-3.89s2.87-1.12,3.11-2.09c0,0,1.56,3,.19,3.94a9.67,9.67,0,0,1,4,6.08s1.46.09,1.8,1.26C128.51,96.78,130.9,103.1,125.35,105.88Z"/><path class="cls-13" d="M140.09,109.82s3.26.19,4,1.36c0,0,2.67,2,5.93-.92,0,0,3.07-2.05,3.41-3.56,0,0,.39-2,0-2.43a3.51,3.51,0,0,0-.1-3.26,10.06,10.06,0,0,0-2.09-2.23s.73-1-1.07-3.6c0,0-1.51-3.7-2.19-3.75a5.58,5.58,0,0,0-.59-2.77s-.53-1.51,0-2c0,0-.63-.69-1.7,1a10.9,10.9,0,0,0-2.48,2.33,3.13,3.13,0,0,0-1.75,2.58s.83,1.17-.44,1.31a2.32,2.32,0,0,0-1.12,2.29.47.47,0,0,1-.53.44S129.83,103.15,140.09,109.82Z"/><path class="cls-14" d="M148.84,103.06s-1.89.58-1.84,1.6c0,0-3.07.29-2.39-2.72a2.66,2.66,0,0,1,2.48-1.71,3.68,3.68,0,0,0,1.27-.82,2.76,2.76,0,0,1,2.14,0,1.44,1.44,0,0,0,.8-.53l-.07,0s.73-1-1.07-3.6c0,0-1.51-3.7-2.19-3.75a5.36,5.36,0,0,0,0-.75,2.38,2.38,0,0,0-3.2.89l-.09.15c-1.36,2.53-.63,2.19-1.46,2.19,0,0,.1,1.51,1,2a1.22,1.22,0,0,0,1.61.82s2.28-.77,2,.34c0,0,.49.54-.58.54,0,0-.44.63-.15,1,0,0-.39.83-1.7,0,0,0-1-.58-1.17-1,0,0-.63-1.12-1.36-.88a3.92,3.92,0,0,0-3.84,2.87s-.64,1.27.39,1.85c0,0,.14,1.51-1.32,1.51l2,4.91,2.53,0a6.2,6.2,0,0,1,2.57,1.6s1.76,1.07,2.83-1.41a8.12,8.12,0,0,1,2.62-2.48C152.39,104.71,149.91,102.42,148.84,103.06Z"/><path class="cls-13" d="M134,111.1a2.08,2.08,0,0,0-2.25.83,2.68,2.68,0,0,1-1.09.23,3.11,3.11,0,0,1-2.34-.66s-2.18-1.5-2.12-2.57a4.2,4.2,0,0,0-1-1.5,2.07,2.07,0,0,1-.55-1.58c.09-.95,0-.07,0-.07a1.15,1.15,0,0,1-.52-1.26s.65-2.24,1.43-2.63c0,0,1.1.13,1.49-.39a3.37,3.37,0,0,0,.19-.91c0-.26,0-.06,0-.06s-.26-1.72.46-2.14a5.54,5.54,0,0,1,1.88-.55,2.13,2.13,0,0,1,2.17-.72l.65.07s.35,0,.22-.65c0,0-.48-.42.13-1.27a5.15,5.15,0,0,1,1.24-1.62s.22-1.1.55-1.3c0,0,.87.26,1,1.69,0,0-.07,1.07.32,1.36,0,0,1.36.85,1.49,1.92a.49.49,0,0,0,0,.58s1.17.78.85,1.72c0,0-.39.71-.78.87l-.07.49s.68,1.17,1.2,1.23c0,0,2.5.2,3.18.94a3,3,0,0,1,.58,1.79s.81.68.78,1.36a7.56,7.56,0,0,1-1.46,1.88s.13.91-.13,1.1a10.44,10.44,0,0,1-2.4,1.43l-.87.42s-1.27,1.52-2.18,1a2.13,2.13,0,0,0-1.16-.91Z"/><path class="cls-14" d="M122.72,89.44l.08-.07a10.94,10.94,0,0,0-2.65-.13c-1.17.29-.78.78-.78.78,1.26.34.82,2,.82,2-1.21,1.65,0,2.67,0,2.67.82,1.07,3.74.78,3.74.78a3.43,3.43,0,0,1,2.82.1A9.67,9.67,0,0,0,122.72,89.44Zm-.82,9.14c-.73-2.82-3-2-3-2a4.61,4.61,0,0,1-2.09.87,2,2,0,0,0-2,1.12c-.24,1.22-1,1.46-1,1.46-1.46.54-1,3.8-1,3.8l.23.68a3.55,3.55,0,0,0,.45.09,4.69,4.69,0,0,0,2.77.44,2.63,2.63,0,0,1,1.43.15,2.37,2.37,0,0,0-1.43-1.46c-.58-.34-1.31-2.09-1.31-2.09-.34-.59.19-1.32.19-1.32.29.1,1-.43,1-.43a1.76,1.76,0,0,1,1.17-.3,1.7,1.7,0,0,1,1.46.44c-.1.73-.24,2-.24,2,0,1.21,1.94,1.41,1.94,1.41a1.07,1.07,0,0,0,1.22-.93c.82-.34.19-1.94.19-1.94C122.63,99.75,121.9,98.58,121.9,98.58Z"/><path class="cls-14" d="M137.51,102.5l.08,0C137.85,102,137.51,102.5,137.51,102.5Zm5.69,3.8c0-.68-.78-1.36-.78-1.36a3,3,0,0,0-.58-1.79,2.27,2.27,0,0,0-1-.52,8.58,8.58,0,0,0-1-.13,3.55,3.55,0,0,0-2.31,0s-.05.09-.08.14a1.64,1.64,0,0,1-1.27.76,6.09,6.09,0,0,0,2.94.94c1.12-.43,1.12.07,1.12.07a1,1,0,0,0,.25.91,1.21,1.21,0,0,1,.66.8,4.43,4.43,0,0,1-.51,2.75,8.34,8.34,0,0,1-2.9,1.92,2.16,2.16,0,0,1-2.32.61,3.53,3.53,0,0,0-3.22-.36,8.41,8.41,0,0,0-2.14.12,4.42,4.42,0,0,1-3.25-.94,9.3,9.3,0,0,0,1.49,1.31,3.11,3.11,0,0,0,2.34.66,2.68,2.68,0,0,0,1.09-.23,2.08,2.08,0,0,1,2.25-.83l1,.16a2.13,2.13,0,0,1,1.16.91c.91.48,2.18-1,2.18-1l.87-.42a10.44,10.44,0,0,0,2.4-1.43c.26-.19.13-1.1.13-1.1A7.56,7.56,0,0,0,143.2,106.3Zm-15.76-1.06s.68,1.32,5,1c0,0,3.85-.63,2.63-2.24,0,0-.54-1.75-3-1-1.46.43-1.2.3-.74.12-.2,0-.38-.12-.47-.46,0,0-.15-1.07-.83-1.07,0,0-.53-1.12,1.95-1.75a6.05,6.05,0,0,1,3.55-.34,4.18,4.18,0,0,0,1.51,0s.58-.25.58.48l.45.12a4.85,4.85,0,0,0,.3-.44c.32-.94-.85-1.72-.85-1.72a.49.49,0,0,1,0-.58c-.13-1.07-1.49-1.92-1.49-1.92-.39-.29-.32-1.36-.32-1.36-.17-1.43-1-1.69-1-1.69-.33.2-.55,1.3-.55,1.3a5.15,5.15,0,0,0-1.24,1.62c-.61.85-.13,1.27-.13,1.27.13.61-.22.65-.22.65l-.65-.07a2.13,2.13,0,0,0-2.17.72,5.54,5.54,0,0,0-1.88.55c-.72.42-.46,2.14-.46,2.14s0-.2,0,.06a3.37,3.37,0,0,1-.19.91c-.39.52-1.49.39-1.49.39-.78.39-1.43,2.63-1.43,2.63a1.15,1.15,0,0,0,.52,1.26s.09-.88,0,.07a2,2,0,0,0,.16,1c.28-.51,1-1.4,2-.86C126.86,106,126.61,105.24,127.44,105.24Zm3.83-2.16a1.3,1.3,0,0,0,.74-.27Z"/><path class="cls-15" d="M85.32,118.43l17.22.19s.68-23.54-2.92-32.49l-15.37-.39Z"/><path class="cls-15" d="M63.37,125l.32-1.62,13.49.13,1.6,1.49h7.35L86,78.15l0,0c-.78-14.26-8.66-13.26-8.66-13.26L47.86,63.56v0H46.18V90h9v35Z"/><path class="cls-16" d="M34.5,118.78,55.11,125l.54-50.33s-1-11.07-9-11.15c0,0-9.53.52-10.37,11.67Z"/><path class="cls-17" d="M59,64s2.15-3.7,7.66-3.76c0,0,6.38.37,7.3,4.62,0,0-5.67,3.24-9.62,1.56A17.47,17.47,0,0,1,59,64Z"/><rect class="cls-17" x="70.43" y="95.73" width="2.04" height="15.14" transform="translate(-33.76 171.9) rotate(-88.43)"/><rect class="cls-17" x="70.63" y="84.31" width="2.04" height="15.14" transform="translate(-22.16 160.99) rotate(-88.43)"/><rect class="cls-17" x="70.11" y="72.25" width="2.04" height="15.14" transform="translate(-10.61 148.74) rotate(-88.43)"/><polygon class="cls-2" points="74.13 120.63 78.69 124.89 78.93 112.72 73.4 112.62 73.25 120.64 74.13 120.63"/><path class="cls-18" d="M63.56,123.32s.32-10.31.32-10.89l13.82.26-.2,11Z"/><circle class="cls-17" cx="92.95" cy="91.53" r="1.51"/><circle class="cls-17" cx="93.44" cy="98.14" r="1.51"/><circle class="cls-17" cx="93.93" cy="105.15" r="1.51"/><circle class="cls-17" cx="94.22" cy="111.96" r="1.51"/><path class="cls-2" d="M102.92,19.72a1.15,1.15,0,0,1-1.26,1h0a1.16,1.16,0,0,1-1.26-1V9.36a1.16,1.16,0,0,1,1.26-1h0a1.15,1.15,0,0,1,1.26,1Z"/><path class="cls-2" d="M108.89,19.59a1,1,0,0,1-1,1h0a1,1,0,0,1-1-1V12.16a1,1,0,0,1,1-1h0a1,1,0,0,1,1,1Z"/><path class="cls-11" d="M105.78,20.88a1,1,0,0,1-1,1h0a1,1,0,0,1-1-1V1a1,1,0,0,1,1-1h0a1,1,0,0,1,1,1Z"/></g></g></svg>