<svg xmlns="http://www.w3.org/2000/svg" xmlns:xlink="http://www.w3.org/1999/xlink" viewBox="0 0 377.08 101.24"><defs><style>.cls-1{fill:#f6921d;}.cls-2{fill:#88cbdf;}.cls-3{fill:#6fb1c8;}.cls-4{fill:#8ec0d3;}.cls-5{fill:#fff;}.cls-6{fill:url(#linear-gradient);}.cls-7{fill:url(#linear-gradient-2);}.cls-8{fill:url(#linear-gradient-3);}.cls-9{fill:url(#linear-gradient-4);}.cls-10{fill:url(#linear-gradient-5);}.cls-11{fill:url(#linear-gradient-6);}.cls-12{fill:#ffc10e;}</style><linearGradient id="linear-gradient" x1="83.44" y1="-32.85" x2="165.14" y2="-32.85" gradientTransform="translate(-66.64 91.5) rotate(-6.47)" gradientUnits="userSpaceOnUse"><stop offset="0" stop-color="#f16422"/><stop offset="0.3" stop-color="#f26d21"/><stop offset="0.79" stop-color="#f5861e"/><stop offset="1" stop-color="#f6921d"/></linearGradient><linearGradient id="linear-gradient-2" x1="111.66" y1="-44.68" x2="95.5" y2="-19.78" gradientTransform="translate(-66.64 91.5) rotate(-6.47)" gradientUnits="userSpaceOnUse"><stop offset="0" stop-color="#ffc10e"/><stop offset="0.3" stop-color="#fdb811"/><stop offset="0.78" stop-color="#f99f19"/><stop offset="1" stop-color="#f6921d"/></linearGradient><linearGradient id="linear-gradient-3" x1="132" y1="-19.51" x2="109.08" y2="-3.02" gradientTransform="translate(-66.64 91.5) rotate(-6.47)" gradientUnits="userSpaceOnUse"><stop offset="0" stop-color="#ffc10e"/><stop offset="0.57" stop-color="#faa816"/><stop offset="1" stop-color="#f6921d"/></linearGradient><linearGradient id="linear-gradient-4" x1="163.1" y1="-70.55" x2="104.29" y2="-11.25" gradientTransform="translate(-66.64 91.5) rotate(-6.47)" gradientUnits="userSpaceOnUse"><stop offset="0" stop-color="#ffc10e"/><stop offset="0.35" stop-color="#febe0f"/><stop offset="0.6" stop-color="#fdb512"/><stop offset="0.82" stop-color="#faa617"/><stop offset="1" stop-color="#f6921d"/></linearGradient><linearGradient id="linear-gradient-5" x1="138.15" y1="-43.9" x2="146.89" y2="-56.43" gradientTransform="translate(-66.64 91.5) rotate(-6.47)" gradientUnits="userSpaceOnUse"><stop offset="0" stop-color="#f16422"/><stop offset="1" stop-color="#f6921d"/></linearGradient><linearGradient id="linear-gradient-6" x1="156.48" y1="-65.76" x2="124.99" y2="-30.14" gradientTransform="translate(-66.64 91.5) rotate(-6.47)" gradientUnits="userSpaceOnUse"><stop offset="0" stop-color="#fff"/><stop offset="0.29" stop-color="#ffeebc"/><stop offset="0.97" stop-color="#ffc316"/><stop offset="1" stop-color="#ffc10e"/></linearGradient></defs><g id="Layer_2" data-name="Layer 2"><g id="Layer_1-2" data-name="Layer 1"><path class="cls-1" d="M118.37,75.8a7,7,0,0,1-2,5.29A7.41,7.41,0,0,1,111,83H99.31V44.8H111a7.38,7.38,0,0,1,5.39,2,7,7,0,0,1,2,5.3Zm-5.75-.94v-22c0-2.14-1.11-3.2-3.34-3.2H105v28.4h4.1Q112.63,78.11,112.62,74.86Z"/><path class="cls-1" d="M140.62,83H124.77V44.8h15.69v5.06h-10V61h8.6v5h-8.6V78h10.13Z"/><path class="cls-1" d="M169.62,83h-5.5V64.16a34.38,34.38,0,0,1,.34-4.15l-4.93,19.51h-2.9L151.68,60a35.31,35.31,0,0,1,.34,4.15V83h-5.5V44.8h5.4l6,21.12a9.25,9.25,0,0,1,.15,1.73,14.15,14.15,0,0,1,.15-1.73l6-21.12h5.4Z"/><path class="cls-1" d="M195.47,80a2.69,2.69,0,0,1-3,3H179.21a2.69,2.69,0,0,1-3-3V47.83a2.69,2.69,0,0,1,3-3h13.23a2.69,2.69,0,0,1,3,3Zm-5.72-1.88V49.71H181.9v28.4Z"/><path class="cls-2" d="M220.85,80a2.69,2.69,0,0,1-3,3H205.07c-2,0-3-1-3-3V47.83q0-3,3-3h12.75a2.69,2.69,0,0,1,3,3v9.44h-5.69V49.71h-7.4v28.4h7.4v-8h5.69Z"/><path class="cls-2" d="M246.61,80a2.69,2.69,0,0,1-3,3H230.36c-2,0-3-1-3-3V47.83q0-3,3-3h13.22a2.69,2.69,0,0,1,3,3Zm-5.72-1.88V49.71h-7.84v28.4Z"/><path class="cls-2" d="M276.27,83h-5.5V64.16a34.8,34.8,0,0,1,.35-4.15l-4.93,19.51h-2.9l-5-19.51a35.31,35.31,0,0,1,.34,4.15V83h-5.5V44.8h5.4l6,21.12a9.25,9.25,0,0,1,.15,1.73,16,16,0,0,1,.14-1.73l6-21.12h5.39Z"/><path class="cls-2" d="M301.28,66.15a2.69,2.69,0,0,1-3,3h-9.69V83h-5.72V44.8h15.41a2.69,2.69,0,0,1,3,3Zm-5.75-1.88V49.71h-7V64.27Z"/><path class="cls-2" d="M326.73,83h-5.66l-1.15-7.25h-7.17L311.6,83H306v-.1l7.4-38.15h6Zm-7.61-12.16-2.78-17.23-2.82,17.23Z"/><path class="cls-2" d="M351.25,83h-5L337.11,59a14.83,14.83,0,0,1,.36,2.76V83h-5.56V44.8h5l9.15,23.57a14,14,0,0,1-.37-2.76V44.8h5.56Z"/><path class="cls-2" d="M377.08,45,372,61q-.93,2.37-2.51,8V83h-5.75V69a33.42,33.42,0,0,0-1.12-4c-.87-2.43-1.33-3.75-1.39-4l-5-16s0-.09,0-.22h5.87l4.57,16.61L371.2,44.8h5.88Z"/><path class="cls-3" d="M76.6,58.49A38.42,38.42,0,1,1,34.1,24.64,38.43,38.43,0,0,1,76.6,58.49Z"/><path class="cls-4" d="M70.63,61.12a35.17,35.17,0,1,1-38.9-31A35.16,35.16,0,0,1,70.63,61.12Z"/><path class="cls-5" d="M28.61,69.83s-9.46-1-15.07,7.28a28.55,28.55,0,0,0-2.93,9.36s3-5.18,6.42-6.22c0,0-6.59,9.82-4.6,17.87,0,0,14.51-6.34,15.62-15.39,0,0,1.18,6.94-.71,9.6,0,0,9.79-6.34,8.46-17.07S30.25,69.65,28.61,69.83Z"/><path class="cls-6" d="M88.3,0S57,3.07,40.69,38.49l-8,1.51L14.71,68.34l13.88-1.67-.33,2.63,7.38,6.27,2.51-1.25-.38,13.16,26.4-24.31-1.41-8.45S99.29,33.45,88.3,0Z"/><polygon class="cls-7" points="29.85 63.43 18.98 65.19 33.09 42.71 39.7 41.46 29.85 63.43"/><polygon class="cls-8" points="40.81 71.57 40.33 82.34 61.59 63.1 60.58 56.35 40.81 71.57"/><path class="cls-9" d="M40.3,67.22s-4.82-2-6.08-5.14c0,0,5.88-21.75,20.28-38.44C54.5,23.64,67.21,7.13,86,4c0,0,6.06,19.48-15.73,41.3C70.28,45.27,54.11,60.66,40.3,67.22Z"/><path class="cls-10" d="M74.26,26a5.51,5.51,0,1,1-6.1-4.86A5.5,5.5,0,0,1,74.26,26Z"/><path class="cls-11" d="M72.59,26.17a3.83,3.83,0,1,1-4.24-3.37A3.83,3.83,0,0,1,72.59,26.17Z"/><polygon class="cls-12" points="32.98 42.72 18.91 65.19 20.23 64.97 34.11 43.7 38.98 42.74 39.7 41.46 32.98 42.72"/><polygon class="cls-12" points="39.8 82.55 40.26 71.98 60.62 56.02 60.87 57.59 41.9 72.79 41.42 81.26 39.8 82.55"/><path class="cls-12" d="M34.22,62.08S44.61,28.12,62,16.2C62,16.2,72.44,6.29,86,4c0,0-21,6.69-34.27,25.56,0,0-9.15,13-16.24,34.36Z"/><path class="cls-1" d="M35.57,73.29l-5.67-5,.73-3.84a38.24,38.24,0,0,0,8.22,6.81Z"/></g></g></svg>